<svg width="37" height="32" viewBox="0 0 37 32" fill="none" xmlns="http://www.w3.org/2000/svg">
<path d="M24.248 31.5833L16.9876 24.3229L19.3792 21.9313L24.248 26.8L33.9001 17.1479L36.2917 19.5396L24.248 31.5833ZM17.5001 12.7917L31.1667 4.25H3.83341L17.5001 12.7917ZM17.5001 16.2083L3.83341 7.66667V24.75H12.6313L16.048 28.1667H3.83341C2.89383 28.1667 2.08949 27.8321 1.42039 27.163C0.751297 26.4939 0.416748 25.6896 0.416748 24.75V4.25C0.416748 3.31042 0.751297 2.50608 1.42039 1.83698C2.08949 1.16788 2.89383 0.833336 3.83341 0.833336H31.1667C32.1063 0.833336 32.9107 1.16788 33.5798 1.83698C34.2489 2.50608 34.5834 3.31042 34.5834 4.25V11.6813L31.1667 15.0979V7.66667L17.5001 16.2083Z" fill="#848484"/>
</svg>
