<svg width="35" height="40" viewBox="0 0 35 40" fill="none" xmlns="http://www.w3.org/2000/svg">
<path d="M17.5 30.4762C19.9062 30.4762 21.875 28.7619 21.875 26.6667C21.875 24.5714 19.9062 22.8571 17.5 22.8571C15.0938 22.8571 13.125 24.5714 13.125 26.6667C13.125 28.7619 15.0938 30.4762 17.5 30.4762ZM30.625 13.3333H28.4375V9.52381C28.4375 4.26667 23.5375 0 17.5 0C11.4625 0 6.5625 4.26667 6.5625 9.52381V13.3333H4.375C1.96875 13.3333 0 15.0476 0 17.1429V36.1905C0 38.2857 1.96875 40 4.375 40H30.625C33.0312 40 35 38.2857 35 36.1905V17.1429C35 15.0476 33.0312 13.3333 30.625 13.3333ZM10.7187 9.52381C10.7187 6.26667 13.7594 3.61905 17.5 3.61905C21.2406 3.61905 24.2812 6.26667 24.2812 9.52381V13.3333H10.7187V9.52381ZM30.625 36.1905H4.375V17.1429H30.625V36.1905Z" fill="#848484"/>
</svg>
