<svg width="46" height="46" viewBox="0 0 46 46" fill="none" xmlns="http://www.w3.org/2000/svg">
<path d="M5.5 37.625C7.75 35.4167 10.3646 33.6771 13.3438 32.4062C16.3229 31.1354 19.5417 30.5 23 30.5C26.4583 30.5 29.6771 31.1354 32.6562 32.4062C35.6354 33.6771 38.25 35.4167 40.5 37.625V5.5H5.5V37.625ZM23 25.5C25.4167 25.5 27.4792 24.6458 29.1875 22.9375C30.8958 21.2292 31.75 19.1667 31.75 16.75C31.75 14.3333 30.8958 12.2708 29.1875 10.5625C27.4792 8.85417 25.4167 8 23 8C20.5833 8 18.5208 8.85417 16.8125 10.5625C15.1042 12.2708 14.25 14.3333 14.25 16.75C14.25 19.1667 15.1042 21.2292 16.8125 22.9375C18.5208 24.6458 20.5833 25.5 23 25.5ZM5.5 45.5C4.125 45.5 2.94792 45.0104 1.96875 44.0312C0.989583 43.0521 0.5 41.875 0.5 40.5V5.5C0.5 4.125 0.989583 2.94792 1.96875 1.96875C2.94792 0.989583 4.125 0.5 5.5 0.5H40.5C41.875 0.5 43.0521 0.989583 44.0312 1.96875C45.0104 2.94792 45.5 4.125 45.5 5.5V40.5C45.5 41.875 45.0104 43.0521 44.0312 44.0312C43.0521 45.0104 41.875 45.5 40.5 45.5H5.5ZM9.8125 40.5H36.1875C34.3542 38.875 32.2813 37.6354 29.9688 36.7812C27.6562 35.9271 25.3333 35.5 23 35.5C20.6667 35.5 18.3229 35.9271 15.9688 36.7812C13.6146 37.6354 11.5625 38.875 9.8125 40.5ZM23 20.5C21.9583 20.5 21.0729 20.1354 20.3438 19.4062C19.6146 18.6771 19.25 17.7917 19.25 16.75C19.25 15.7083 19.6146 14.8229 20.3438 14.0938C21.0729 13.3646 21.9583 13 23 13C24.0417 13 24.9271 13.3646 25.6562 14.0938C26.3854 14.8229 26.75 15.7083 26.75 16.75C26.75 17.7917 26.3854 18.6771 25.6562 19.4062C24.9271 20.1354 24.0417 20.5 23 20.5Z" fill="black"/>
</svg>
